HIERARCHY
ROOT hip
{
	OFFSET 0.000000 0.000000 0.000000 
	CHANNELS 6 Xposition Yposition Zposition Xrotation Zrotation Yrotation
	JOINT abdomen
	{
		OFFSET 0.000000 3.402643 0.000000 
		CHANNELS 3 Xrotation Zrotation Yrotation
		JOINT chest
		{
			OFFSET 0.000000 8.438565 -0.680529 
			CHANNELS 3 Xrotation Zrotation Yrotation
			JOINT neck
			{
				OFFSET 0.000000 9.885400 -0.272212 
				CHANNELS 3 Xrotation Zrotation Yrotation
				JOINT head
				{
					OFFSET 0.000000 3.130431 0.000000 
					CHANNELS 3 Xrotation Zrotation Yrotation
					End Site
					{
						OFFSET 0.000000 3.039250 0.000000 
					}
				}
			}
			JOINT lCollar
			{
				OFFSET 3.238290 6.669187 -0.816635 
				CHANNELS 3 Yrotation Zrotation Xrotation
				JOINT lShldr
				{
					OFFSET 2.515050 0.000000 0.000000 
					CHANNELS 3 Zrotation Yrotation Xrotation
					JOINT lForeArm
					{
						OFFSET 11.517700 0.000000 0.000000 
						CHANNELS 3 Yrotation Zrotation Xrotation
						JOINT lHand
						{
							OFFSET 9.026700 0.000000 0.000000 
							CHANNELS 3 Zrotation Yrotation Xrotation
							End Site
							{
								OFFSET 4.028470 0.000000 0.000000 
							}
						}
					}
				}
			}
			JOINT rCollar
			{
				OFFSET -3.238290 6.669187 -0.816635 
				CHANNELS 3 Yrotation Zrotation Xrotation
				JOINT rShldr
				{
					OFFSET -2.515050 0.000000 0.000000 
					CHANNELS 3 Zrotation Yrotation Xrotation
					JOINT rForeArm
					{
						OFFSET -11.517700 0.000000 0.000000 
						CHANNELS 3 Yrotation Zrotation Xrotation
						JOINT rHand
						{
							OFFSET -9.026700 0.000000 0.000000 
							CHANNELS 3 Zrotation Yrotation Xrotation
							End Site
							{
								OFFSET -4.028470 0.000000 0.000000 
							}
						}
					}
				}
			}
		}
	}
	JOINT lThigh
	{
		OFFSET 4.983750 -1.633274 1.361059 
		CHANNELS 3 Xrotation Zrotation Yrotation
		JOINT lShin
		{
			OFFSET -2.041588 -20.007561 0.000000 
			CHANNELS 3 Xrotation Zrotation Yrotation
			JOINT lFoot
			{
				OFFSET 0.000000 -19.190928 -1.224953 
				CHANNELS 3 Xrotation Yrotation Zrotation
				End Site
				{
					OFFSET 0.000000 -2.449906 4.627600 
				}
			}
		}
	}
	JOINT rThigh
	{
		OFFSET -4.983750 -1.633274 1.361059 
		CHANNELS 3 Xrotation Zrotation Yrotation
		JOINT rShin
		{
			OFFSET 2.041588 -20.007561 0.000000 
			CHANNELS 3 Xrotation Zrotation Yrotation
			JOINT rFoot
			{
				OFFSET 0.000000 -19.190928 -1.224953 
				CHANNELS 3 Xrotation Yrotation Zrotation
				End Site
				{
					OFFSET 0.000000 -2.449906 4.627600 
				}
			}
		}
	}
}
MOTION
Frames: 16
Frame Time: 0.066668
0.000000 42.519611 0.000000 4.453690 -0.915197 0.035995 -6.958701 2.948477 1.935875 -2.982300 1.263633 0.829661 7.242301 -3.345678 -4.340172 8.766520 5.722520 -1.486930 2.000000 -2.000000 0.020256 94.151703 -179.882004 7.861620 24.863600 -0.338892 0.057544 0.048470 0.025121 -124.362999 -2.000000 2.000000 0.020256 -99.812599 -170.315994 2.455840 -34.775799 0.327146 0.077982 -0.055573 0.020256 -143.854996 -15.140272 0.604800 -7.205612 32.164623 2.710726 2.358248 -16.612259 9.672491 3.631472 -17.093241 1.604704 7.379692 37.431229 -2.428568 -2.737165 -16.130234 -12.017033 -4.340079 
-0.036738 42.495209 -0.017601 4.355850 -0.759519 -0.067741 -6.918311 3.003462 1.909926 -2.964990 1.287198 0.818540 7.044344 -3.391291 -4.356913 8.688010 5.723320 -1.524020 2.000000 -2.000000 0.000000 94.141899 -179.697006 7.891320 24.853800 -0.338902 0.057523 0.048428 0.024934 -124.431999 -2.000000 2.000000 0.000000 -99.910301 -170.531998 2.300130 -34.736698 0.327199 0.077905 -0.055556 0.019234 -143.807007 -15.118359 0.505896 -7.034034 32.322403 2.712403 2.385279 -16.687510 9.665039 3.622971 -17.192663 1.472371 7.324739 37.765911 -2.417397 -2.766385 -16.264675 -11.866944 -4.307305 
-0.104909 42.466461 -0.051667 4.345960 -0.623203 -0.096292 -6.919571 3.071796 1.814359 -2.965530 1.316484 0.777583 7.006799 -3.377371 -4.319398 8.678100 5.713690 -1.516010 2.000000 -2.000000 0.000000 -85.818901 -0.537219 -171.835007 24.853800 -0.338902 0.057523 0.048399 0.024800 -124.480003 -2.000000 2.000000 0.000000 -100.067001 -170.570007 2.378360 -34.814800 0.327093 0.078058 -0.055573 0.019369 -143.854996 -15.171529 0.461531 -6.958794 32.362106 2.699980 2.371458 -16.658882 9.634127 3.613621 -17.343288 1.387423 7.241414 38.071396 -2.402930 -2.794618 -16.487587 -11.756206 -4.307208 
-0.238007 42.415104 -0.104764 4.316450 -0.262924 -0.254265 -6.865110 3.131786 1.836337 -2.942190 1.342194 0.787001 6.673490 -3.369483 -4.330338 8.589870 5.724310 -1.514230 2.000000 -2.000000 0.000000 -85.672401 -0.917985 -171.794998 24.902599 -0.338853 0.057628 0.048329 0.024480 -124.598000 -2.000000 2.000000 0.000000 -100.067001 -170.697998 2.281020 -34.922199 0.326946 0.078268 -0.055530 0.019016 -143.727997 -15.215090 0.283626 -6.757068 32.449821 2.705829 2.371707 -16.621468 9.653917 3.633218 -17.794367 1.188406 7.230440 38.916729 -2.370559 -2.835483 -16.893286 -11.585248 -4.305320 
-0.486292 42.344707 -0.173196 4.267610 0.233725 -0.392676 -6.804560 3.209542 1.758190 -2.916240 1.375518 0.753510 5.984572 -3.393522 -4.087915 8.334330 5.687850 -1.532710 2.000000 -2.000000 0.000000 94.532402 -178.621994 7.561670 24.805000 -0.338951 0.057417 0.048434 0.024961 -124.421997 -2.000000 2.000000 0.000000 -99.998299 -170.845001 2.047010 -34.922199 0.326946 0.078268 -0.055498 0.018745 -143.630997 -15.204185 0.102918 -6.510653 32.393387 2.684705 2.386676 -16.473021 9.624072 3.688154 -18.337484 0.933303 7.131751 39.949501 -2.323228 -2.895530 -17.390163 -11.332393 -4.290302 
-0.947634 42.265743 -0.348648 4.404820 0.886047 -0.351529 -6.723010 3.255924 1.728040 -2.881290 1.395396 0.740589 5.033733 -3.500399 -3.626123 8.009090 5.534970 -1.565720 2.000000 -2.000000 0.000000 94.912903 -177.623001 6.538490 24.433901 -0.339320 0.056612 0.048804 0.026587 -123.825996 -2.000000 2.000000 0.000000 -99.744499 -171.197006 1.657280 -35.049198 0.326773 0.078516 -0.055473 0.018527 -143.552994 -15.520282 -0.057134 -6.581556 32.267002 2.671878 2.385253 -16.047174 9.681285 3.676573 -19.213495 0.900817 7.381563 41.122799 -2.238183 -2.996552 -17.641050 -11.555726 -4.372058 
-1.603060 42.198536 -0.520995 4.561360 1.080550 0.232854 -6.663721 3.231683 1.432873 -2.855880 1.385007 0.614088 3.774915 -3.654552 -3.489940 8.001910 5.827310 -1.644080 2.000000 -2.000000 0.000000 95.244400 -176.447006 4.753980 23.886999 -0.339854 0.055421 0.049506 0.029484 -122.762001 -2.000000 2.000000 0.000000 -99.656700 -171.412003 1.550400 -35.303101 0.326424 0.079012 -0.055527 0.018989 -143.718994 -16.114372 0.247640 -7.359948 32.567730 2.706055 2.379550 -15.674603 9.898685 3.691303 -19.899879 1.363248 6.881020 41.853031 -2.163860 -3.051057 -17.603163 -11.986237 -4.480349 
-2.435299 42.135170 -0.781343 4.717560 1.031650 0.915371 -6.445600 3.165974 1.264402 -2.762400 1.356846 0.541887 2.665886 -3.538726 -3.353154 7.579910 5.840740 -1.617760 2.000000 -2.000000 0.000000 95.575699 -174.634995 2.669050 23.555000 -0.340173 0.054696 0.049171 0.028130 -123.260002 -2.000000 2.000000 0.000000 -99.744698 -171.804001 1.190060 -35.254299 0.326491 0.078917 -0.055537 0.019071 -143.748001 -16.956038 0.958606 -8.345906 33.009312 2.710328 2.403248 -15.146971 10.130091 3.717180 -20.490795 2.206497 6.260178 42.240719 -2.086341 -3.101587 -17.610062 -12.113046 -4.443581 
-3.385002 42.097740 -1.109820 4.873410 0.700583 1.661410 -6.289920 3.231410 1.096934 -2.695680 1.384890 0.470115 1.701757 -3.694912 -3.133586 7.176990 5.785450 -1.721310 2.000000 -2.000000 0.000000 95.780197 -172.718002 1.325930 23.808901 -0.339929 0.055251 0.048440 0.024987 -124.412003 -2.000000 2.000000 0.000000 -100.389000 -172.546997 0.801317 -34.658600 0.327305 0.077752 -0.055537 0.019071 -143.748001 -18.162920 1.890305 -9.391134 34.010098 2.721574 2.458292 -14.224896 10.707278 3.727300 -20.986485 3.504846 5.691161 42.175266 -2.040622 -3.115265 -17.186646 -12.377331 -4.382012 
-4.323491 42.113319 -1.473803 5.097660 0.019454 2.521270 -6.113590 3.246131 0.904480 -2.620110 1.391199 0.387634 1.136686 -3.648541 -3.069656 6.921930 5.806840 -1.726400 2.000000 -2.000000 0.000000 95.750099 -170.645996 0.549572 24.590099 -0.339165 0.056951 0.047499 0.020435 -126.071999 -2.000000 2.000000 0.000000 -101.386002 -173.643005 -0.084575 -33.545300 0.328795 0.075552 -0.055386 0.017767 -143.279007 -20.270668 2.829110 -9.327752 36.147663 2.637303 2.592683 -12.762037 12.191940 3.796633 -21.326336 4.946327 4.657810 41.384983 -1.991988 -3.097166 -16.551081 -12.233778 -4.140075 
-5.067096 42.042286 -1.845460 5.205430 -0.661324 3.504100 -6.074739 3.252298 0.624982 -2.603460 1.393842 0.267850 1.045528 -3.771138 -2.884665 6.852800 5.748800 -1.785020 2.000000 -2.000000 0.000000 95.221901 -168.643997 0.476146 26.094000 -0.337630 0.060194 0.045990 0.011068 -129.460999 -2.000000 2.000000 0.000000 -103.037003 -175.091003 -1.252770 -32.305000 0.330403 0.073068 -0.055332 0.017277 -143.102997 -22.489389 2.913914 -8.696365 38.989330 2.442696 2.809414 -12.193271 18.399906 5.017278 -21.984291 5.511914 1.902511 41.262230 -1.930878 -3.127061 -16.912262 -10.400104 -3.562369 
-5.590302 41.906094 -2.149254 4.649250 -1.070680 3.643230 -5.907721 3.606526 0.576621 -2.531880 1.545654 0.247123 1.311441 -4.011413 -2.605649 6.959850 5.621250 -1.858860 2.000000 -2.000000 0.000000 94.292999 -166.544998 0.764241 27.676100 -0.335923 0.063561 0.044861 0.008555 -133.865005 -2.000000 2.000000 0.000000 -105.137001 -177.587006 -3.667870 -30.244499 0.332955 0.068866 -0.055140 0.015400 -142.429993 -23.681545 1.944275 -6.942132 42.171619 2.220304 3.025922 -15.166911 14.746045 4.817707 -22.084671 6.104766 0.440462 41.705917 -1.893701 -3.170357 -17.301008 -9.239813 -3.158276 
-5.902183 41.719818 -2.339471 4.551840 -1.236320 3.778350 -5.772480 3.693263 0.498408 -2.473920 1.582827 0.213604 1.589287 -4.346570 -2.282926 7.056850 5.464520 -1.974710 2.000000 -2.000000 0.000000 93.852600 -164.770996 2.350380 29.844101 -0.333434 0.068095 0.044787 -0.007026 -139.432007 -2.000000 2.000000 0.000000 -106.847000 179.582001 -7.225580 -28.564800 0.334923 0.065374 -0.055145 0.015455 -142.449005 -24.603840 -0.244647 -6.123334 43.478153 2.029841 3.158120 -18.072636 10.116229 3.828699 -22.548065 6.434937 -0.126481 42.512993 -1.829599 -3.223794 -17.808056 -8.910089 -3.097563 
-6.037929 41.623230 -2.466395 4.737350 -1.187340 3.631900 -5.772760 3.759322 0.569936 -2.474040 1.611138 0.244258 1.738824 -4.277082 -2.447263 7.165410 5.551510 -1.949920 2.000000 -2.000000 0.000000 93.705101 -163.007996 4.161070 32.187801 -0.330553 0.072887 0.045850 -0.019722 -143.981995 -2.000000 2.000000 0.000000 71.531197 3.423360 169.500000 -27.695601 0.335901 0.063545 -0.055014 0.014039 -141.940994 -25.258017 -2.531850 -5.688275 43.172249 1.928660 3.205027 -20.363441 7.753304 3.120189 -23.206923 6.352529 -0.626348 43.181057 -1.793112 -3.260749 -18.227280 -8.385800 -2.946442 
-5.998658 41.569565 -2.595853 4.903810 -1.401100 3.043660 -5.722920 3.728312 0.928179 -2.452680 1.597848 0.397791 1.627928 -4.330484 -2.392792 7.165190 5.522250 -1.971050 2.000000 -2.000000 0.000000 93.762199 -160.852997 5.581970 34.424198 -0.327623 0.077346 0.047295 -0.029099 -147.371002 -2.000000 2.000000 0.000000 70.026802 6.925080 167.097000 -27.519800 0.336095 0.063173 -0.055005 0.013930 -141.901993 -25.725622 -3.800594 -5.951140 42.674301 1.900204 3.187220 -21.162931 5.997445 2.341660 -23.666206 6.453047 -0.903197 43.320526 -1.768365 -3.296288 -18.264626 -7.735900 -2.685991 
-5.807437 41.596008 -2.706013 4.787370 -1.741950 2.529690 -5.577320 3.729586 1.245360 -2.390280 1.598394 0.533726 1.564733 -4.332359 -2.652658 7.155960 5.600330 -1.997040 2.000000 -2.000000 0.000000 93.848297 -158.550995 6.856660 36.719101 -0.324437 0.081800 0.049516 -0.039277 -151.091995 -2.000000 2.000000 0.000000 68.582497 10.608300 166.421997 -28.672199 0.334800 0.065599 -0.055156 0.015564 -142.488007 -25.631310 -3.964075 -6.940277 42.349850 1.915483 3.162402 -17.661690 4.036386 1.194976 -23.507442 6.621538 -0.954967 42.878910 -1.785865 -3.275677 -18.004938 -7.324385 -2.527562 
